<svg xmlns="http://www.w3.org/2000/svg" xmlns:xlink="http://www.w3.org/1999/xlink" fill="none" version="1.1" width="13.21875" height="18" viewBox="0 0 13.21875 18"><defs><clipPath id="master_svg0_1_022"><rect x="0" y="0" width="13.21875" height="18" rx="0"/></clipPath></defs><g clip-path="url(#master_svg0_1_022)"><g transform="matrix(1,0,0,-1,0,34.59375)"><g><path d="M11.0742,24.714845Q11.0391,26.648435,12.832,27.703075Q11.8125,29.109375,9.84375,29.285175000000002Q9.24609,29.320275000000002,8.64844,29.144575Q8.05078,28.968775,7.59375,28.792975Q7.03125,28.582075,6.75,28.546875Q6.36328,28.582075,5.76562,28.828075Q4.92188,29.179675,4.04297,29.249975Q2.49609,29.214875,1.30078,28.054675Q0.0703125,26.894534999999998,0,24.539065Q0,23.167965,0.492188,21.691405Q0.738281,21.023435,1.30078,19.968755Q1.86328,18.949215,2.63672,18.140625Q3.41016,17.3320312,4.28906,17.296875Q4.85156,17.3320312,5.41406,17.578125Q6.04688,17.894531,6.92578,17.929687Q7.76953,17.894531,8.36719,17.613281Q8.92969,17.3320312,9.63281,17.296875Q10.4766,17.3671875,11.2148,18.105469Q11.9531,18.878905,12.4805,19.828125Q13.0078,20.812495,13.2188,21.480465Q11.6367,22.359375,11.3203,23.449215Q11.0039,24.503905,11.0742,24.714845ZM9.07031,30.480475Q9.73828,31.359375,9.87891,32.062475Q9.98438,32.730475,9.91406,33.046875Q9.28125,33.011675,8.61328,32.660175Q7.98047,32.308575,7.52344,31.816375Q6.57422,30.761675,6.64453,29.285175000000002Q8.01562,29.249975,9.07031,30.480475Z" fill="#6B7280" fill-opacity="1" style="mix-blend-mode:passthrough"/></g></g></g></svg>