<svg xmlns="http://www.w3.org/2000/svg" xmlns:xlink="http://www.w3.org/1999/xlink" fill="none" version="1.1" width="18" height="18" viewBox="0 0 18 18"><defs><clipPath id="master_svg0_1_017"><rect x="0" y="0" width="18" height="18" rx="0"/></clipPath></defs><g clip-path="url(#master_svg0_1_017)"><g transform="matrix(1,0,0,-1,0,36.703125)"><g><path d="M18,27.2812525Q17.9648,29.812462500000002,16.7695,31.8163625Q15.5742,33.8554625,13.5352,35.050762500000005Q11.5312,36.2460625,9,36.2812625Q6.46875,36.2460625,4.46484,35.050762500000005Q2.42578,33.8554625,1.23047,31.8163625Q0.0351562,29.812462500000002,0,27.2812525Q0.0703125,24.0468725,1.93359,21.6914025Q3.83203,19.3359375,6.82031,18.5273435L6.82031,24.5390625L4.95703,24.5390625L4.95703,27.2812525L6.82031,27.2812525L6.82031,28.4765625Q6.78516,33.0117625,11.2148,32.9413625Q11.6719,32.9413625,12.2695,32.8710625Q12.832,32.8007625,13.1836,32.7304625L13.1836,30.2343625Q12.832,30.2695625,12.1289,30.2695625Q11.0391,30.2695625,10.5469,29.812462500000002Q10.0898,29.3203625,10.0898,28.2656225L10.0898,27.2812525L13.043,27.2812525L12.5156,24.5390625L10.0898,24.5390625L10.0898,18.3515625Q13.5,18.8437505,15.7148,21.3046825Q17.9297,23.7656225,18,27.2812525Z" fill="#1877F2" fill-opacity="1" style="mix-blend-mode:passthrough"/></g></g></g></svg>