<svg xmlns="http://www.w3.org/2000/svg" xmlns:xlink="http://www.w3.org/1999/xlink" fill="none" version="1.1" width="17.15625" height="18" viewBox="0 0 17.15625 18"><defs><clipPath id="master_svg0_1_012"><rect x="0" y="0" width="17.15625" height="18" rx="0"/></clipPath></defs><g clip-path="url(#master_svg0_1_012)"><g transform="matrix(1,0,0,-1,0,36.28125)"><g><path d="M17.1562,26.648435Q17.0859,22.851565,14.8359,20.531245Q12.5508,18.2109375,8.71875,18.140625Q6.29297,18.1757812,4.32422,19.335935Q2.35547,20.496095,1.19531,22.464845Q0.0351562,24.433595,0,26.859375Q0.0351562,29.285125,1.19531,31.253925000000002Q2.35547,33.222625,4.32422,34.382825Q6.29297,35.542925,8.71875,35.578125Q12.2695,35.507825,14.5547,33.292925L12.1992,31.007825Q10.5469,32.484425,8.50781,32.343725Q6.46875,32.238325,4.92188,30.796825Q3.41016,29.320325,3.30469,26.859375Q3.375,24.503905,4.88672,22.957035Q6.43359,21.410155,8.71875,21.339845Q10.4414,21.375005,11.4961,22.042965Q12.5508,22.710935,13.0781,23.554685Q13.5703,24.433595,13.6758,25.101565L8.71875,25.101565L8.71875,28.125005L17.0156,28.125005Q17.1562,27.492185,17.1562,26.648435Z" fill="#6B7280" fill-opacity="1" style="mix-blend-mode:passthrough"/></g></g></g></svg>